<svg xmlns="http://www.w3.org/2000/svg" width="42" height="20" viewBox="0 0 42 20"><defs><style>.a{fill:#fff;fill-rule:evenodd;}</style></defs><title>arrow_white</title><path class="a" d="M.1523.7673,36.0958,2.3349c-.9652.6746-1.7486,1.2416-2.571,1.7968-3.9615,2.667-7.0857,5.5693-10.6024,8.3614-1.1122.8816-2.1616,1.781-3.2795,2.6609a11.2032,11.2032,0,0,1-1.2917.7139c-.4442-.6224-.81-1.1034-1.1346-1.5906a30.57,30.57,0,0,0-2.69-3.1716C13.0275,9.4292,11.102,7.8394,9.9633,6.0851a16.6242,16.6242,0,0,0-2.2864-2.32c-.4116-.4033-.8509-.801-1.5238-1.43m0,0L.1523.7673c-.09.1571-.24.2657-.1871.3447A13.41,13.41,0,0,0,3.4924,4.8754,14.9528,14.9528,0,0,1,5.619,6.631c1.4731,1.4912,2.6678,3.0456,4.3122,4.4942a15.0949,15.0949,0,0,1,4,5.5936,15.684,15.684,0,0,0,.6851,1.4821c.2925.5252.9635.9144,2.1952,1.0107a4.7171,4.7171,0,0,0,3.0862-.6815c.5576-.375,1.0508-.7694,1.5722-1.1553,1.9732-1.4623,3.9968-2.91,5.9078-4.3889,2.1912-1.6959,4.2716-3.421,6.4266-5.1267.5514-.4369,1.2158-.8447,1.8056-1.2711.9719-.7071,2.7726-1.2,2.6641-2.1888-.0118-.1123.3731-.2363.41-.3381a1.5451,1.5451,0,0,1,1.0587-.9732c1.3037-.4527,2.0315-.9028,2.2728-1.401S40.9746.8241,40.0521,1.11L36.0958,2.3349"/></svg>