<svg xmlns="http://www.w3.org/2000/svg" width="42" height="20" viewBox="0 0 42 20"><defs><style>.a{fill:#feef00;}</style></defs><title>arrow_yellow</title><path class="a" d="M36.02,2.12c-.9775.6831-1.7709,1.2574-2.6037,1.82C29.4046,6.64,26.2407,9.58,22.6793,12.4072c-1.1264.8928-2.1891,1.8037-3.3212,2.6947a11.353,11.353,0,0,1-1.3081.723c-.45-.63-.82-1.1174-1.1491-1.6108a30.9583,30.9583,0,0,0-2.7242-3.2119c-1.5181-1.6978-3.4681-3.3079-4.6213-5.0845A16.8366,16.8366,0,0,0,7.24,3.5682C6.8231,3.16,6.3782,2.7571,5.6968,2.12m0,0S2.2,1.4123.4682,1.0741a.3965.3965,0,0,0-.3916.6253A12.58,12.58,0,0,0,3.0022,4.6927,15.1433,15.1433,0,0,1,5.1559,6.4706c1.4918,1.51,2.7017,3.0843,4.367,4.5513a15.2887,15.2887,0,0,1,4.0509,5.6647,15.852,15.852,0,0,0,.6938,1.501c.2962.5319.9757.926,2.2231,1.0235a4.7768,4.7768,0,0,0,3.1254-.69c.5647-.38,1.0642-.7792,1.5922-1.17,1.9983-1.4809,4.0476-2.947,5.9829-4.4447C29.41,11.1888,31.5171,9.4418,33.7,7.7144c.5584-.4425,1.2313-.8554,1.8286-1.2873.9842-.716,2.8078-1.2152,2.698-2.2166-.012-.1137.3778-.2393.4152-.3424a1.5649,1.5649,0,0,1,1.0721-.9856c1.32-.4584,2.0574-.9142,2.3017-1.4188S40.961.59,40.0268.8794L36.02,2.12"/></svg>