<svg xmlns="http://www.w3.org/2000/svg" width="68" height="32" viewBox="0 0 68 32"><defs><style>.a{fill:#46e010;}</style></defs><title>arrow_green</title><path class="a" d="M63.3,19.4c.2-1.6.4-3,.6-4.4a5.4617,5.4617,0,0,1,.6-1.8,1.5551,1.5551,0,0,1,.8-.6.8868.8868,0,0,1,1,.6,14.584,14.584,0,0,1,1,4.6,19.2687,19.2687,0,0,0,.1,2.4c.1.9.2,1.9.3,2.8a33.74,33.74,0,0,1,.2,7.1,2.12,2.12,0,0,1-2.2,2,2.8426,2.8426,0,0,1-1.2-.4A47.44,47.44,0,0,0,56,27.6c-1-.3-2-.8-3-1.2a2.994,2.994,0,0,1-.8-.4,1.42,1.42,0,0,1-.7-1.4,1.6375,1.6375,0,0,1,1.5-1c.4.1.7.1,1,.2,2.4.6,4.9,1.2,7.4,1.8.3-.3,0-.6-.1-.9a16.1907,16.1907,0,0,0-3.1-4.6,35.6941,35.6941,0,0,1-2.7-2.8c-2.6-3-6.1-4.8-9.6-6.5-.3-.1-.5-.2-.8-.3q-3.15-.45-6.6-.9c.2.4.3.7.5,1.1l3.6,5.4a6.4314,6.4314,0,0,1-.7,6.9l-1.5,1.5A5.08,5.08,0,0,1,37,26.2a33.7875,33.7875,0,0,1-4.5,0,2.8426,2.8426,0,0,1-1.2-.4c-1.6-1.5-3.2-2.8-4.2-4.8a8.54,8.54,0,0,1,.3-8.6A23.5861,23.5861,0,0,1,31,8.2l-.9-.9c-1.9-1.2-3.9-2.5-5.8-3.7a8.488,8.488,0,0,0-2.2-.9,15.9512,15.9512,0,0,0-5.3-.9,67.68,67.68,0,0,0-10.1.5A19.1,19.1,0,0,0,2,3.5a8.3309,8.3309,0,0,1-1.5.4A.55.55,0,0,1,0,3.6a.7494.7494,0,0,1,.1-.5,13.5226,13.5226,0,0,1,4.2-2A67.0357,67.0357,0,0,1,19.1.1a16.9963,16.9963,0,0,1,6.3,1.4,55.2215,55.2215,0,0,1,8,4.2,2.1448,2.1448,0,0,0,2,.5c2.5-.7,5,0,7.5.1a20.0312,20.0312,0,0,1,8.5,2.9,28.0951,28.0951,0,0,1,7,5.3C59.9,16.1,61.6,17.6,63.3,19.4ZM34.5,10.6a9.8546,9.8546,0,0,0-4.3,4.5,4.5058,4.5058,0,0,0,0,3.6,8.3222,8.3222,0,0,0,1.9,2.6,3.9464,3.9464,0,0,0,3,1.3,4.2392,4.2392,0,0,0,3.6-1.9,2.591,2.591,0,0,0,.5-3C38,15.1,36.8,12.6,34.5,10.6Z"/></svg>