<svg xmlns="http://www.w3.org/2000/svg" width="97" height="52" viewBox="0 0 97 52"><defs><style>.a{fill:#feef00;}</style></defs><title>arrow_video</title><path class="a" d="M95.4834,10.431a6.03,6.03,0,0,0,.89-6.7232c-.9887-2.1751-2.9661-2.9661-5.24-3.065A4.2216,4.2216,0,0,0,87.7715,1.73a4.1314,4.1314,0,0,0-1.6808,1.9774c-.9887,2.3729,0,5.24,1.78,7.02a4.0551,4.0551,0,0,0,2.2741,1.2854,50.9676,50.9676,0,0,0-.9887,8.6017c-.1978,4.2515.7909,9.4916-.2966,13.6442-.2967,1.2853-5.3391,1.1865-7.5142,1.2853-3.9549.1978-8.0086.0989-12.0623.0989-8.6017.0989-17.2035.2966-25.9041.4944-4.5481.0988-9.0962.1977-13.7431.3954a85.48,85.48,0,0,0-9.986.4944c-.0988-3.1639,0-6.4266-.2966-9.4916a1.7813,1.7813,0,0,0-3.5593,0A55.3407,55.3407,0,0,1,8.477,34.7533c-2.9661,2.1751-6.3277,4.548-8.3051,7.613a1.9531,1.9531,0,0,0,.7909,2.4718,97.0161,97.0161,0,0,0,11.37,5.0424c2.6695.89,5.9322,3.5594,8.404.9887,1.78-1.8785.3955-5.5367-.0989-7.613-.1977-1.0876-.3954-2.1752-.4943-3.2628a79.3115,79.3115,0,0,0,9.6893.2966c5.0424,0,10.1837-.0988,15.2261-.0988,10.0849-.0989,20.2686-.3955,30.3534-.3955a86.12,86.12,0,0,0,11.2713-.5932c2.274-.2966,4.2514,0,5.6356-1.9775,1.8786-2.6695.9887-7.5141.9887-10.5791,0-5.24.0989-10.3815,1.3842-15.5228A4.9556,4.9556,0,0,1,95.4834,10.431ZM16.3867,47.0133a20.2114,20.2114,0,0,0-4.1526-1.2854,66.6509,66.6509,0,0,1-7.3164-3.2627,50.2338,50.2338,0,0,1,4.9435-4.35,23.114,23.114,0,0,0,3.856-3.7571c.5932-.791,1.2853-1.78,1.9774-2.6695a63.6145,63.6145,0,0,0,1.4831,14.3363A14.1762,14.1762,0,0,1,17.5731,48.2,1.4689,1.4689,0,0,0,16.3867,47.0133Z"/></svg>