<svg xmlns="http://www.w3.org/2000/svg" width="217" height="50" viewBox="0 0 217 50"><defs><style>.a{fill:#fff;}</style></defs><title>logo_white</title><path class="a" d="M110.1877,22.4372l4.1065,9.7359,4.3382-9.1132h2.702L114.12,38.1474l-3.933-9.3674-3.931,9.2428L99.0589,23.06h2.7046l4.3614,9.0249Z"/><path class="a" d="M138.3785,30.9952H125.8532a4.9305,4.9305,0,0,0,1.8591,3.3,5.3036,5.3036,0,0,0,3.1581,1.0411,5.474,5.474,0,0,0,4.4123-2.1884l2.26,1.7077a8.1715,8.1715,0,0,1-6.814,3.2917,7.3785,7.3785,0,0,1-5.48-2.2419,7.6247,7.6247,0,0,1-2.2062-5.5689,7.4724,7.4724,0,0,1,2.2329-5.4,7.5737,7.5737,0,0,1,10.88.0358A8.1513,8.1513,0,0,1,138.3785,30.9952Zm-12.205-2.4733h8.9671a4.7405,4.7405,0,0,0-4.4123-3.0247A4.6815,4.6815,0,0,0,126.1735,28.5219Z"/><path class="a" d="M141.6879,14.6444h3.06V25.96a6.24,6.24,0,0,1,5.6577-3.3092,6.4938,6.4938,0,0,1,4.9371,2.2774,7.7281,7.7281,0,0,1,2.0905,5.4086,8.0292,8.0292,0,0,1-2.0547,5.4711,6.2152,6.2152,0,0,1-4.7951,2.34,6.4377,6.4377,0,0,1-3.3447-.9429,6.795,6.795,0,0,1-2.4908-2.5622v3.0958h-3.06ZM154.16,30.3366a4.6805,4.6805,0,0,0-1.4411-3.4426,4.7656,4.7656,0,0,0-3.4871-1.4323,4.8814,4.8814,0,0,0-3.425,8.3533,4.912,4.912,0,0,0,3.5674,1.4145,4.562,4.562,0,0,0,3.3715-1.441A4.7542,4.7542,0,0,0,154.16,30.3366Z"/><path class="a" d="M162.3087,18.79h3.0957v4.27h3.06v2.8288h-3.06V37.7381h-3.0957V25.8887h-2.4376V23.0244h2.4376Z"/><path class="a" d="M185.8468,30.9952H173.3215a4.9305,4.9305,0,0,0,1.8591,3.3,5.3029,5.3029,0,0,0,3.1581,1.0411,5.4744,5.4744,0,0,0,4.4123-2.1884l2.26,1.7077a8.1716,8.1716,0,0,1-6.8142,3.2917,7.3784,7.3784,0,0,1-5.48-2.2419,7.6235,7.6235,0,0,1-2.2062-5.5689,7.4724,7.4724,0,0,1,2.2329-5.4,7.5735,7.5735,0,0,1,10.88.0358A8.1526,8.1526,0,0,1,185.8468,30.9952Zm-12.205-2.4733h8.9671a4.7409,4.7409,0,0,0-4.4125-3.0247A4.6815,4.6815,0,0,0,173.6418,28.5219Z"/><path class="a" d="M200.4183,33.2546v3.5406a9.2425,9.2425,0,0,1-4.59,1.3522,7.8162,7.8162,0,0,1-7.6146-7.5793,7.6357,7.6357,0,0,1,2.2771-5.6668,7.7951,7.7951,0,0,1,5.7113-2.2507,9.5288,9.5288,0,0,1,4.2166,1.0675V27.17a8.2465,8.2465,0,0,0-4.4123-1.4944,4.7608,4.7608,0,0,0-3.3627,1.352,4.2134,4.2134,0,0,0-1.4411,3.1673,4.7578,4.7578,0,0,0,1.352,3.4425,4.4286,4.4286,0,0,0,3.3095,1.3968A8.31,8.31,0,0,0,200.4183,33.2546Z"/><path class="a" d="M204.2078,14.6444h3.0958V25.4617a10.4808,10.4808,0,0,1,2.393-2.1439,5.1834,5.1834,0,0,1,2.7133-.6672,4.3077,4.3077,0,0,1,3.2291,1.4323A4.7984,4.7984,0,0,1,217,27.5077v10.23h-3.0958V28.38a3.3439,3.3439,0,0,0-.7028-2.2239,2.3088,2.3088,0,0,0-1.8591-.8364,3.7719,3.7719,0,0,0-2.8556,1.2632,4.3139,4.3139,0,0,0-1.1831,3.06v8.0952h-3.0958Z"/><polygon class="a" points="63.069 49.663 84.111 37.972 84.111 23.204 63.069 34.894 63.069 49.663"/><polygon class="a" points="20.985 49.663 42.027 37.972 42.027 23.204 20.985 34.894 20.985 49.663"/><polygon class="a" points="63.069 49.663 42.027 37.972 42.027 23.204 63.069 34.894 63.069 49.663"/><polygon class="a" points="8.132 19.088 0.26 14.769 0.26 0 21.303 11.69 8.132 19.088"/><polygon class="a" points="20.985 49.663 -0.058 37.972 -0.058 23.204 20.985 34.894 20.985 49.663"/></svg>