<svg xmlns="http://www.w3.org/2000/svg" width="30" height="26" viewBox="0 0 30 26"><defs><style>.a{fill:#46e010;}</style></defs><title>mark_green</title><path class="a" d="M.1,13V11.9a4.2528,4.2528,0,0,1,.2-1.1A16.6118,16.6118,0,0,1,2.9,6.1a1.38,1.38,0,0,0,.3-.4C4.4,4.6,5.5,3.6,6.7,2.5c.3-.2.5-.3.8-.5.8-.2,1.5-.4,2.2-.6.1,0,.3-.1.4,0a.6611.6611,0,0,1,.6.7.3674.3674,0,0,1-.1.3L10,3A40.165,40.165,0,0,0,5.5,7.7a13.0955,13.0955,0,0,0-2.2,4,1.0873,1.0873,0,0,0-.1.5c0,1.1.1,2.1.1,3.2a2.45,2.45,0,0,0,.4,1.2l1.8,3a7.1193,7.1193,0,0,0,4.1,3.1,6.2615,6.2615,0,0,0,2.7.3,16.7464,16.7464,0,0,0,7.6-2.2,22.53,22.53,0,0,0,5.2-4,13.9334,13.9334,0,0,0,1.5-1.9,1.4213,1.4213,0,0,0,.2-.6,5.274,5.274,0,0,1,.3-1.2A5.8075,5.8075,0,0,0,27,9.2a8.056,8.056,0,0,0-1.9-3.8,8.8775,8.8775,0,0,0-3.4-2.7,7.3225,7.3225,0,0,0-2.5-.8c-.9-.1-1.7-.2-2.6-.3a6.729,6.729,0,0,0-2,.1c-.1,0-.3.1-.4,0a1.02,1.02,0,0,1-.8-.5.9052.9052,0,0,1,.3-1A12.7652,12.7652,0,0,1,15.4,0a28.1021,28.1021,0,0,1,2.9.1c.8.1,1.5.2,2.3.3a11.4667,11.4667,0,0,1,3.1,1.1c.5.2.9.5,1.3.7.3.2.5.4.8.6a21.5844,21.5844,0,0,1,2.7,3.3,2.9946,2.9946,0,0,1,.4,1c.3,1.1.6,2.2.8,3.3a3.7875,3.7875,0,0,1,0,1.5c-.2,1-.4,2.1-.6,3.1a2.9946,2.9946,0,0,1-.4,1,22.5838,22.5838,0,0,1-11.3,8.8c-1.1.3-2.3.5-3.4.8-.6.1-1.2.2-1.7.3a8.5778,8.5778,0,0,1-5-.8,11.3321,11.3321,0,0,1-3.7-2.8,3.1907,3.1907,0,0,1-.6-.7c-.7-1.3-1.5-2.5-2.2-3.8a6.9434,6.9434,0,0,1-.5-1.3C.2,15.3.1,14.1.1,13Z"/><path class="a" d="M13.9,13.5a3.5082,3.5082,0,0,0,.5-.8c.7-1,1.4-2.1,2-3.1a17.5539,17.5539,0,0,1,2.4-3,5.6746,5.6746,0,0,1,1.8-1.2,5.274,5.274,0,0,1,1.2-.3.5764.5764,0,0,1,.6.6.3674.3674,0,0,1-.1.3,4.8111,4.8111,0,0,1-.9,1.1,14.5984,14.5984,0,0,0-2.6,3.4C17.9,12.3,17,14,16,15.8a6.42,6.42,0,0,1-1,1.3,1.4921,1.4921,0,0,1-2.2.2,1.7937,1.7937,0,0,1-.5-.7,4.9508,4.9508,0,0,1-.4-1.3,2.994,2.994,0,0,0-.4-.8,22.8425,22.8425,0,0,0-2.2-2.2A1.1012,1.1012,0,0,1,9,10.8a1.2257,1.2257,0,0,1,1.6-.4c.2.1.4.3.6.4.7.7,1.5,1.3,2.2,2A2.1019,2.1019,0,0,0,13.9,13.5Z"/></svg>