<svg xmlns="http://www.w3.org/2000/svg" width="24" height="22" viewBox="0 0 24 22"><defs><style>.a{fill:#feef00;}</style></defs><title>mark_yellow</title><path class="a" d="M9,14.7c.4-.5.6-.9.9-1.3,1.2-1.8,2.4-3.7,3.5-5.5a29.9,29.9,0,0,1,4.2-5.2A12.125,12.125,0,0,1,20.8.5a7.3355,7.3355,0,0,1,2-.5,1.0126,1.0126,0,0,1,.9,1.5,7.3505,7.3505,0,0,1-1.6,1.9,24.1843,24.1843,0,0,0-4.5,6l-5.1,9.3A19.5218,19.5218,0,0,1,10.8,21a2.74,2.74,0,0,1-4.7-.9c-.3-.7-.4-1.5-.7-2.2a2.7287,2.7287,0,0,0-.7-1.3A44.0463,44.0463,0,0,0,1,12.8a1.9669,1.9669,0,0,1-.6-2.6,2.1807,2.1807,0,0,1,2.8-.7,4.44,4.44,0,0,1,1.1.8c1.3,1.2,2.5,2.4,3.8,3.5A7.6368,7.6368,0,0,0,9,14.7Z"/></svg>